# xmcd CD database file
# Copyright (C) 1993-1998 Ti Kan
#
# Track frame offsets:
#	182
#	15137
#	42142
#	55590
#	82212
#	95502
#	119052
#	138592
#	158920
#	178365
#	213352
#	227010
#	249275
#	263905
#	277732
#	290112
#	310192
#
# Disc length: 4345 seconds
#
# Revision: 1
# Processed by: cddbd v1.4b41PL1 Copyright (c) Steve Scherf et al.
# Submitted via: CDValet v3.31 - Copyright (c) 1997 Greg Leichner
#
DISCID=ef10f711
DTITLE=Lightnin' Hopkins - The Texas Bluesman
DYEAR=1900
DGENRE=
TTITLE0=Mojo Hand
TTITLE1=Cotton
TTITLE2=Little Wail
TTITLE3=Hurricane Betsy
TTITLE4=Take Me Back, Baby
TTITLE5=Really Nothin' But The Blues
TTITLE6=Guitar Lightnin'
TTITLE7=Woke Up This Morning
TTITLE8=Shake Yourself
TTITLE9=California Showers
TTITLE10=Goin' Out
TTITLE11=Tom Moore Blues
TTITLE12=I Would If I Could
TTITLE13=At Home Blues
TTITLE14=Watch My Fingers
TTITLE15=Bud Russell Blues
TTITLE16=Cut Me Out Baby
EXTD=
EXTT0=
EXTT1=
EXTT2=
EXTT3=
EXTT4=
EXTT5=
EXTT6=
EXTT7=
EXTT8=
EXTT9=
EXTT10=
EXTT11=
EXTT12=
EXTT13=
EXTT14=
EXTT15=
EXTT16=
PLAYORDER=
